<mxfile host="app.diagrams.net" modified="2020-03-17T02:02:58.018Z" agent="Mozilla/5.0 (Windows NT 10.0; WOW64; rv:68.0) Gecko/20100101 Firefox/68.0" etag="lTlnnO0MVyUxF0aAwUFB" version="12.8.5" type="github">
  <diagram id="-OH3jiOoGUKF4-Y2jC9f" name="Page-1">
    <mxGraphModel dx="782" dy="713" grid="1" gridSize="10" guides="1" tooltips="1" connect="1" arrows="1" fold="1" page="1" pageScale="1" pageWidth="1654" pageHeight="1169" math="0" shadow="0">
      <root>
        <mxCell id="0" />
        <mxCell id="1" parent="0" />
        <mxCell id="KHP-ejmdHy4gok-QVi7Y-1" value="NetworkPlan_Generic" style="shape=umlLifeline;perimeter=lifelinePerimeter;whiteSpace=wrap;html=1;container=1;collapsible=0;recursiveResize=0;outlineConnect=0;" vertex="1" parent="1">
          <mxGeometry x="280" y="180" width="130" height="300" as="geometry" />
        </mxCell>
        <mxCell id="KHP-ejmdHy4gok-QVi7Y-3" value=":Object" style="shape=umlLifeline;perimeter=lifelinePerimeter;whiteSpace=wrap;html=1;container=1;collapsible=0;recursiveResize=0;outlineConnect=0;" vertex="1" parent="1">
          <mxGeometry x="620" y="180" width="100" height="300" as="geometry" />
        </mxCell>
        <mxCell id="KHP-ejmdHy4gok-QVi7Y-5" style="edgeStyle=orthogonalEdgeStyle;rounded=0;orthogonalLoop=1;jettySize=auto;html=1;" edge="1" parent="1" source="KHP-ejmdHy4gok-QVi7Y-4" target="KHP-ejmdHy4gok-QVi7Y-1">
          <mxGeometry relative="1" as="geometry">
            <Array as="points">
              <mxPoint x="260" y="280" />
              <mxPoint x="260" y="280" />
            </Array>
          </mxGeometry>
        </mxCell>
        <mxCell id="KHP-ejmdHy4gok-QVi7Y-4" value="&lt;div&gt;NetAct&lt;/div&gt;&lt;div&gt;&lt;br&gt;&lt;/div&gt;" style="shape=umlLifeline;participant=umlActor;perimeter=lifelinePerimeter;whiteSpace=wrap;html=1;container=1;collapsible=0;recursiveResize=0;verticalAlign=top;spacingTop=36;labelBackgroundColor=#ffffff;outlineConnect=0;" vertex="1" parent="1">
          <mxGeometry x="150" y="180" width="20" height="300" as="geometry" />
        </mxCell>
        <mxCell id="KHP-ejmdHy4gok-QVi7Y-6" value="beginUpload" style="text;html=1;" vertex="1" parent="1">
          <mxGeometry x="210" y="250" width="100" height="30" as="geometry" />
        </mxCell>
        <mxCell id="KHP-ejmdHy4gok-QVi7Y-11" value="alt" style="shape=umlFrame;whiteSpace=wrap;html=1;" vertex="1" parent="1">
          <mxGeometry x="195" y="295" width="300" height="70" as="geometry" />
        </mxCell>
        <mxCell id="KHP-ejmdHy4gok-QVi7Y-12" value="frame" style="shape=umlFrame;whiteSpace=wrap;html=1;" vertex="1" parent="1">
          <mxGeometry x="195" y="380" width="300" height="70" as="geometry" />
        </mxCell>
      </root>
    </mxGraphModel>
  </diagram>
</mxfile>
